<svg width="108" height="166" viewBox="0 0 108 166" fill="none" xmlns="http://www.w3.org/2000/svg">
<path d="M106 36.3871C106.002 34.6514 105.493 32.9536 104.535 31.5068C103.577 30.0599 102.214 28.9283 100.617 28.254C99.0198 27.5797 97.2593 27.3926 95.5562 27.7162C93.8531 28.0398 92.2834 28.8596 91.0438 30.073V22.4452C91.0422 20.1082 90.3092 17.8305 88.9478 15.9323C87.5865 14.0341 85.6653 12.6108 83.4542 11.8625C81.2432 11.1142 78.8536 11.0786 76.6213 11.7607C74.389 12.4427 72.4263 13.8081 71.0091 15.6649V13.3936C71.0657 10.4435 69.9552 7.59064 67.9197 5.45706C65.8842 3.32349 63.0889 2.08224 60.1432 2.00394C57.1975 1.92564 54.3403 3.01665 52.1947 5.03909C50.049 7.06152 48.7889 9.85135 48.6891 12.8003C47.2709 10.9469 45.3088 9.58471 43.0781 8.90481C40.8474 8.22492 38.46 8.26147 36.2511 9.00934C34.0422 9.75721 32.1226 11.1789 30.7617 13.0748C29.4007 14.9707 28.6668 17.2457 28.6629 19.5805V77.2551C25.213 74.4473 20.8462 73.0197 16.4063 73.2483C11.9664 73.4768 7.76879 75.3453 4.62466 78.4925C3.79266 79.3238 3.13258 80.3113 2.6822 81.3984C2.23182 82.4855 2 83.6509 2 84.8278C2 86.0047 2.23182 87.1701 2.6822 88.2572C3.13258 89.3443 3.79266 90.3318 4.62466 91.1631L36.7377 123.369C36.8597 123.483 36.9963 123.58 37.144 123.657C38.304 124.676 39.5565 125.584 40.8852 126.37V162.22C40.8852 162.692 41.0724 163.145 41.4058 163.479C41.7391 163.812 42.1912 164 42.6626 164H91.9833C92.4547 164 92.9069 163.812 93.2402 163.479C93.5735 163.145 93.7608 162.692 93.7608 162.22V126.37C97.4954 124.122 100.585 120.945 102.73 117.148C104.875 113.35 106.001 109.061 106 104.698V36.3871ZM91.1369 123.827C90.8561 123.979 90.6215 124.204 90.4577 124.479C90.2939 124.753 90.2069 125.067 90.2059 125.386V160.491H44.4401V125.344C44.4391 125.024 44.3521 124.711 44.1883 124.436C44.0244 124.162 43.7898 123.937 43.509 123.785C41.9786 122.939 40.5574 121.908 39.277 120.717C39.1931 120.647 39.1055 120.582 39.0146 120.522L7.13852 88.6459C6.63793 88.1453 6.24081 87.5508 5.96986 86.8964C5.69891 86.242 5.55944 85.5405 5.55944 84.832C5.55944 84.1236 5.69891 83.4221 5.96986 82.7677C6.24081 82.1133 6.63793 81.5188 7.13852 81.0181C8.47496 79.6779 10.0622 78.6146 11.8094 77.8892C13.5566 77.1637 15.4295 76.7903 17.3209 76.7903C19.2124 76.7903 21.0853 77.1637 22.8325 77.8892C24.5797 78.6146 26.1669 79.6779 27.5033 81.0181L29.1538 82.7132L41.8501 95.4262C42.1059 95.6783 42.4314 95.8479 42.7845 95.9128C43.1376 95.9778 43.502 95.9352 43.8307 95.7906C46.9809 94.388 50.5098 94.0835 53.8533 94.9256C57.1967 95.7678 60.1616 97.7081 62.2741 100.436C64.3865 103.165 65.5245 106.523 65.5061 109.975C65.4877 113.427 64.3139 116.774 62.1725 119.479C61.8773 119.848 61.7405 120.319 61.7921 120.788C61.8437 121.258 62.0795 121.688 62.4476 121.984C62.8158 122.279 63.2861 122.416 63.7552 122.365C64.2242 122.313 64.6536 122.077 64.9488 121.708C67.5369 118.464 68.9923 114.461 69.0922 110.31C69.1921 106.16 67.931 102.091 65.502 98.726C63.0729 95.3612 59.6097 92.8861 55.6424 91.6794C51.675 90.4727 47.4221 90.601 43.5344 92.0445L32.1925 80.6791V19.5805C32.1925 17.5575 32.995 15.6174 34.4236 14.1869C35.8522 12.7564 37.7898 11.9528 39.8102 11.9528C41.8306 11.9528 43.7682 12.7564 45.1968 14.1869C46.6254 15.6174 47.428 17.5575 47.428 19.5805V65.432C47.428 65.9041 47.6152 66.3568 47.9486 66.6905C48.2819 67.0243 48.734 67.2118 49.2054 67.2118H50.4581C50.9295 67.2118 51.3816 67.0243 51.715 66.6905C52.0483 66.3568 52.2356 65.9041 52.2356 65.432V13.3936C52.2356 12.3919 52.4326 11.4 52.8155 10.4745C53.1983 9.54908 53.7594 8.7082 54.4668 7.99989C55.1742 7.29159 56.0139 6.72973 56.9382 6.3464C57.8624 5.96307 58.853 5.76577 59.8534 5.76577C60.8537 5.76577 61.8443 5.96307 62.7685 6.3464C63.6928 6.72973 64.5325 7.29159 65.2399 7.99989C65.9473 8.7082 66.5084 9.54908 66.8912 10.4745C67.2741 11.4 67.4711 12.3919 67.4711 13.3936V65.4066C67.4711 65.8786 67.6584 66.3313 67.9917 66.6651C68.3251 66.9989 68.7772 67.1864 69.2486 67.1864H70.5013C70.9727 67.1864 71.4248 66.9989 71.7581 66.6651C72.0915 66.3313 72.2787 65.8786 72.2787 65.4066V22.4452C72.2787 20.4222 73.0813 18.482 74.5099 17.0515C75.9385 15.6211 77.8761 14.8174 79.8965 14.8174C81.9169 14.8174 83.8545 15.6211 85.2831 17.0515C86.7117 18.482 87.5142 20.4222 87.5142 22.4452V65.4066C87.5142 65.8786 87.7015 66.3313 88.0349 66.6651C88.3682 66.9989 88.8203 67.1864 89.2917 67.1864H90.1805C90.6519 67.1864 91.104 66.9989 91.4373 66.6651C91.7707 66.3313 91.9579 65.8786 91.9579 65.4066V36.3871C91.9579 34.9912 92.5117 33.6525 93.4975 32.6655C94.4832 31.6784 95.8201 31.1239 97.2142 31.1239C98.6082 31.1239 99.9452 31.6784 100.931 32.6655C101.917 33.6525 102.47 34.9912 102.47 36.3871V104.707C102.476 108.62 101.426 112.463 99.4308 115.828C97.436 119.194 94.5704 121.957 91.1369 123.827V123.827Z" fill="#231F20" stroke="#231F20" stroke-width="3" stroke-linecap="round" stroke-linejoin="round"/>
</svg>
