<svg width="94" height="131" viewBox="0 0 94 131" fill="none" xmlns="http://www.w3.org/2000/svg">
<path d="M83.0928 10.4604C81.831 10.4615 80.5839 10.7277 79.4346 11.2414C78.2853 11.755 77.2601 12.5043 76.4274 13.4393C75.8342 11.4058 74.6652 9.58147 73.0575 8.18031C71.4498 6.77915 69.4703 5.85936 67.3511 5.5289C65.232 5.19843 63.0613 5.47099 61.0938 6.31461C59.1262 7.15823 57.4435 8.53789 56.2431 10.2917C55.6313 7.99348 54.2888 5.94917 52.4126 4.45866C50.5364 2.96816 48.2253 2.10992 45.8183 2.00986C43.4113 1.90981 41.0351 2.57321 39.0384 3.90273C37.0417 5.23225 35.5296 7.15788 34.7239 9.39713C33.449 7.31658 31.518 5.70529 29.2265 4.80979C26.935 3.91429 24.4091 3.78391 22.0353 4.4386C19.6615 5.09329 17.5705 6.49699 16.0824 8.43492C14.5942 10.3728 13.7908 12.7383 13.7951 15.1693V30.5869C11.9699 30.9061 10.2707 31.7202 8.88801 32.9378C7.50528 34.1555 6.49355 35.7287 5.96607 37.4814L2.95422 47.3295C1.94856 50.6327 1.73425 54.1211 2.32816 57.52C2.92208 60.9188 4.30799 64.1352 6.37675 66.9159L17.9021 82.7808C18.3043 83.3968 18.7578 84.0044 19.2027 84.5782L19.2626 84.6542C19.3063 84.7169 19.355 84.7762 19.4081 84.8314C21.2901 87.1444 23.5728 89.1101 26.1505 90.6373V127.228C26.1505 127.461 26.1969 127.691 26.2872 127.906C26.3775 128.121 26.5099 128.316 26.6767 128.481C26.8436 128.646 27.0417 128.776 27.2597 128.865C27.4777 128.954 27.7113 129 27.9473 129H77.805C78.041 129 78.2746 128.954 78.4926 128.865C78.7106 128.776 78.9087 128.646 79.0756 128.481C79.2424 128.316 79.3748 128.121 79.4651 127.906C79.5554 127.691 79.6019 127.461 79.6019 127.228V90.6373C83.3814 88.4022 86.5097 85.2401 88.6824 81.4587C90.855 77.6774 91.998 73.4056 92 69.0593V19.2705C92.0022 18.1151 91.7736 16.9705 91.327 15.9023C90.8805 14.834 90.2249 13.863 89.3977 13.0448C88.5705 12.2266 87.5879 11.5773 86.506 11.1338C85.4242 10.6904 84.2644 10.4615 83.0928 10.4604V10.4604ZM77.7794 19.2452C77.7794 17.8553 78.3392 16.5224 79.3356 15.5396C80.3321 14.5568 81.6836 14.0047 83.0928 14.0047C84.5021 14.0047 85.8536 14.5568 86.85 15.5396C87.8465 16.5224 88.4063 17.8553 88.4063 19.2452V32.9245C88.408 33.6424 88.2598 34.353 87.971 35.0121C87.6823 35.6711 87.259 36.2645 86.7277 36.7553C86.1964 37.246 85.5684 37.6237 84.8827 37.8648C84.197 38.1058 83.4683 38.2052 82.742 38.1565C81.367 38.033 80.0905 37.4001 79.1697 36.3855C78.2488 35.3708 77.752 34.0497 77.7794 32.6882V19.2452ZM57.8944 16.5279C57.8944 14.5136 58.7058 12.5818 60.1499 11.1575C61.5941 9.73318 63.5528 8.93301 65.5951 8.93301C67.6375 8.93301 69.5962 9.73318 71.0404 11.1575C72.4845 12.5818 73.2958 14.5136 73.2958 16.5279V30.5785C73.297 31.6071 73.0863 32.6253 72.6765 33.5713C72.2667 34.5172 71.6664 35.3711 70.9119 36.0814C70.1574 36.7916 69.2644 37.3432 68.2873 37.7028C67.3101 38.0624 66.269 38.2225 65.2272 38.1734C63.2262 38.0258 61.3567 37.1341 59.9969 35.6787C58.6372 34.2233 57.8887 32.3128 57.903 30.3337L57.8944 16.5279ZM37.6416 13.1524C37.6416 11.1381 38.4529 9.20631 39.8971 7.78199C41.3413 6.35767 43.2999 5.5575 45.3423 5.5575C47.3847 5.5575 49.3433 6.35767 50.7875 7.78199C52.2317 9.20631 53.043 11.1381 53.043 13.1524V30.5869C53.043 30.7641 53.043 30.9413 53.043 31.127C51.944 30.6683 50.7625 30.4329 49.5691 30.435H37.6502C37.6502 30.435 37.6502 30.3591 37.6502 30.3253L37.6416 13.1524ZM17.3888 15.1777C17.3888 13.1634 18.2001 11.2316 19.6442 9.8073C21.0884 8.38298 23.0471 7.5828 25.0895 7.5828C27.1318 7.5828 29.0905 8.38298 30.5347 9.8073C31.9788 11.2316 32.7901 13.1634 32.7901 15.1777V30.435H17.3888C17.3888 30.435 17.3888 30.3591 17.3888 30.3253V15.1777ZM76.9751 88.0635C76.6906 88.2164 76.4531 88.4421 76.2875 88.7168C76.1219 88.9915 76.0343 89.3051 76.0339 89.6246V125.489H29.7698V89.6162C29.7694 89.2966 29.6818 88.983 29.5162 88.7083C29.3506 88.4337 29.1131 88.208 28.8286 88.055C26.2609 86.6755 24.0001 84.8017 22.1803 82.5445V82.4939L22.129 82.4264C21.7183 81.9116 21.3332 81.3715 20.9653 80.823C20.9542 80.7987 20.9398 80.776 20.9225 80.7555L9.36293 64.8315C7.61168 62.4969 6.43554 59.7922 5.92763 56.9316C5.41973 54.0711 5.594 51.1332 6.43666 48.3506L9.44848 38.5109C9.8428 37.196 10.6589 36.0426 11.7744 35.224C12.8898 34.4054 14.2444 33.9657 15.6347 33.9709H49.5777C51.0225 33.9731 52.4075 34.5402 53.4292 35.5478C54.4508 36.5554 55.0258 37.9214 55.0281 39.3464C55.0281 43.1512 53.4956 46.8001 50.7677 49.4905C48.0399 52.1809 44.3401 53.6923 40.4823 53.6923H18.1246C17.6481 53.6923 17.191 53.879 16.8541 54.2113C16.5171 54.5437 16.3278 54.9944 16.3278 55.4644C16.3278 55.9344 16.5171 56.3852 16.8541 56.7175C17.191 57.0499 17.6481 57.2366 18.1246 57.2366H25.8253L26.8435 59.3294C27.049 59.7428 27.4089 60.0616 27.8476 60.219C28.2863 60.3763 28.7698 60.36 29.1965 60.1733C32.4325 58.7492 36.0643 58.4561 39.492 59.3426C42.9197 60.229 45.9383 62.2419 48.0494 65.0489C50.1606 67.8558 51.2379 71.289 51.1035 74.7814C50.9691 78.2737 49.631 81.6165 47.3102 84.2576C47.0336 84.6177 46.9061 85.068 46.9536 85.5174C47.001 85.9667 47.2199 86.3815 47.5659 86.6776C47.9118 86.9738 48.359 87.1291 48.8167 87.1122C49.2745 87.0954 49.7086 86.9075 50.0312 86.5867C51.9781 84.3609 53.3731 81.7189 54.1059 78.8696C54.8387 76.0203 54.8892 73.0419 54.2533 70.17C53.6175 67.2982 52.3128 64.6116 50.4424 62.3229C48.5721 60.0342 46.1874 58.2062 43.477 56.9834C47.6983 56.2657 51.5271 54.1012 54.2884 50.8714C57.0497 47.6417 58.5661 43.5542 58.5704 39.3295V39.2282C60.4039 40.7095 62.6716 41.5704 65.039 41.6839H65.5866C68.4872 41.6922 71.2782 40.5912 73.3729 38.6122C74.0227 38.0002 74.5971 37.3148 75.0841 36.57C75.7523 37.9918 76.7942 39.2113 78.1018 40.1016C79.4093 40.992 80.9347 41.5209 82.5196 41.6333C82.7164 41.6333 82.9131 41.6333 83.1185 41.6333C85.0296 41.6345 86.889 41.0213 88.4149 39.8865V68.9749C88.4307 72.8773 87.3757 76.7112 85.3617 80.0702C83.3477 83.4293 80.4498 86.1884 76.9751 88.055V88.0635Z" fill="#231F20" stroke="#231F20" stroke-width="3" stroke-linecap="round" stroke-linejoin="round"/>
</svg>
