<svg width="93" height="166" viewBox="0 0 93 166" fill="none" xmlns="http://www.w3.org/2000/svg">
<path d="M82.187 45.2866C80.9399 45.2861 79.707 45.5524 78.57 46.0678C77.433 46.5833 76.4179 47.336 75.5921 48.2762C75.0235 46.3134 73.9335 44.5438 72.4397 43.1577C70.9459 41.7717 69.1047 40.8217 67.1142 40.41C65.1237 39.9982 63.0592 40.1404 61.143 40.821C59.2268 41.5017 57.5315 42.6952 56.2392 44.2731L57.289 13.4151C57.3339 10.4703 56.2283 7.62525 54.2101 5.49184C52.1919 3.35843 49.4222 2.10697 46.4964 2.00654C43.5707 1.90612 40.7226 2.96475 38.5645 4.95482C36.4065 6.94489 35.1108 9.70747 34.9561 12.6486L33.7116 49.4345L28.6321 18.0485C28.4627 16.5352 27.9893 15.0724 27.2406 13.7489C26.4919 12.4254 25.4836 11.2689 24.2769 10.3495C23.0702 9.4302 21.6903 8.7673 20.2211 8.40108C18.7519 8.03487 17.224 7.973 15.7303 8.21922C14.2365 8.46545 12.8082 9.01464 11.5319 9.83341C10.2557 10.6522 9.15824 11.7235 8.30625 12.9821C7.45425 14.2408 6.86549 15.6606 6.57577 17.1553C6.28605 18.65 6.3014 20.1883 6.62088 21.6768L13.6814 65.1148V65.4384C11.8733 65.7608 10.1901 66.5833 8.82043 67.8139C7.45078 69.0444 6.44876 70.6344 5.92667 72.4056L2.94671 82.3367C1.9497 85.6704 1.73663 89.1916 2.32432 92.6224C2.91201 96.0532 4.28437 99.2995 6.33304 102.105L16.9238 117.002C19.0684 120.795 22.1471 123.968 25.8638 126.218V162.211C25.8638 162.686 26.051 163.141 26.3845 163.476C26.7179 163.812 27.1701 164 27.6416 164H76.9805C77.452 164 77.9042 163.812 78.2377 163.476C78.5711 163.141 78.7583 162.686 78.7583 162.211V126.209C82.4932 123.95 85.5834 120.757 87.7285 116.941C89.8736 113.124 91.0006 108.815 91 104.43V54.1787C91.0022 53.0125 90.7759 51.8573 90.3341 50.7791C89.8923 49.7009 89.2437 48.7209 88.4252 47.8951C87.6068 47.0693 86.6345 46.4139 85.5641 45.9663C84.4938 45.5187 83.3462 45.2878 82.187 45.2866V45.2866ZM57.2467 51.4191C57.2467 49.386 58.0494 47.4363 59.4783 45.9987C60.9072 44.5612 62.8452 43.7535 64.8659 43.7535C66.8867 43.7535 68.8247 44.5612 70.2535 45.9987C71.6824 47.4363 72.4852 49.386 72.4852 51.4191V65.5918C72.4864 66.63 72.2779 67.6576 71.8724 68.6124C71.4669 69.5671 70.873 70.429 70.1264 71.1458C69.3799 71.8626 68.4964 72.4194 67.5296 72.7823C66.5627 73.1453 65.5327 73.3069 64.5019 73.2573C62.522 73.1083 60.6723 72.2083 59.3269 70.7394C57.9815 69.2704 57.241 67.3422 57.2551 65.3448L57.2467 51.4191ZM38.5117 12.7763C38.5802 10.7433 39.4486 8.82092 40.9259 7.43207C42.4032 6.04322 44.3684 5.30169 46.3892 5.37058C48.4099 5.43948 50.3207 6.31317 51.7012 7.79945C53.0816 9.28573 53.8187 11.2629 53.7503 13.2959L51.9809 64.8763C51.9703 65.2374 52.0676 65.5935 52.2603 65.8984C51.2171 65.4836 50.1057 65.2697 48.984 65.2681H36.7085C36.7168 65.1831 36.7168 65.0976 36.7085 65.0126L38.5117 12.7763ZM10.0665 21.0977C9.86228 20.0871 9.86282 19.0455 10.0681 18.0352C10.2734 17.0249 10.6792 16.0666 11.2612 15.2178C11.8432 14.369 12.5895 13.647 13.4554 13.0951C14.3212 12.5432 15.2888 12.1728 16.3003 12.006C17.3118 11.8391 18.3464 11.8793 19.342 12.1242C20.3377 12.369 21.274 12.8134 22.095 13.4309C22.916 14.0483 23.6047 14.8261 24.1198 15.7175C24.635 16.609 24.9661 17.5959 25.0933 18.6192L32.5433 64.4249C32.5817 64.6418 32.6071 64.8608 32.6195 65.0807C32.6154 65.1374 32.6154 65.1944 32.6195 65.2511H17.1778V64.9359C17.186 64.8396 17.186 64.7427 17.1778 64.6463L10.0665 21.0977ZM76.1001 123.603C75.8202 123.756 75.5868 123.983 75.4244 124.259C75.2619 124.534 75.1766 124.849 75.1773 125.17V160.44H29.4025V125.178C29.4021 124.856 29.3154 124.539 29.1516 124.262C28.9877 123.985 28.7527 123.757 28.4713 123.603C24.9041 121.641 21.9539 118.715 19.9546 115.154L19.853 114.992L9.17756 99.9674C7.44888 97.609 6.28896 94.8785 5.78941 91.9916C5.28986 89.1047 5.46438 86.1405 6.29917 83.3332L9.27069 73.4021C9.664 72.0758 10.4737 70.9134 11.5787 70.0888C12.6836 69.2643 14.0243 68.8221 15.4 68.8283H48.9755C50.4058 68.8283 51.7774 69.3999 52.7888 70.4174C53.8001 71.4349 54.3682 72.8149 54.3682 74.2538C54.3682 78.0939 52.852 81.7768 50.1529 84.4922C47.4539 87.2076 43.7933 88.7331 39.9763 88.7331H17.8974C17.4259 88.7331 16.9737 88.9216 16.6403 89.257C16.3069 89.5924 16.1196 90.0474 16.1196 90.5217C16.1196 90.9961 16.3069 91.4511 16.6403 91.7865C16.9737 92.1219 17.4259 92.3104 17.8974 92.3104H25.5166L26.5325 94.4226C26.7342 94.8393 27.0887 95.1609 27.5214 95.3198C27.9541 95.4786 28.4312 95.4624 28.8522 95.2744C32.0537 93.8428 35.6445 93.5511 39.0328 94.4473C42.4212 95.3435 45.4051 97.374 47.493 100.205C49.5809 103.035 50.6482 106.497 50.5191 110.019C50.39 113.541 49.0723 116.914 46.7829 119.583C46.5588 119.841 46.4133 120.159 46.3639 120.499C46.3145 120.838 46.3631 121.185 46.5041 121.497C46.6451 121.81 46.8725 122.075 47.159 122.261C47.4456 122.447 47.7794 122.546 48.1204 122.547C48.3751 122.546 48.6268 122.491 48.8588 122.385C49.0908 122.279 49.2979 122.125 49.4665 121.933C51.3911 119.685 52.7699 117.018 53.4939 114.142C54.218 111.266 54.2674 108.26 53.6385 105.361C53.0096 102.463 51.7194 99.7511 49.8699 97.4403C48.0205 95.1294 45.6623 93.2828 42.9817 92.0463C47.1433 91.3263 50.9204 89.1558 53.6508 85.9151C56.3813 82.6744 57.891 78.5702 57.9154 74.3219C59.732 75.8128 61.9743 76.6812 64.3156 76.8005H64.8574C67.7274 76.8088 70.4888 75.6976 72.5613 73.7002C73.204 73.0822 73.7723 72.3904 74.2545 71.639C74.9127 73.0745 75.9418 74.3059 77.2343 75.2048C78.5269 76.1037 80.0355 76.6371 81.6029 76.7493C81.7976 76.7493 82.0008 76.7493 82.1955 76.7493C84.0879 76.7524 85.93 76.1366 87.4443 74.9948V104.354C87.4575 108.291 86.4125 112.158 84.42 115.547C82.4275 118.935 79.5616 121.719 76.1255 123.603H76.1001ZM87.4189 67.9596C87.4194 68.6846 87.2717 69.402 86.9851 70.0672C86.6984 70.7324 86.2788 71.3312 85.7525 71.8264C85.2261 72.3216 84.6042 72.7026 83.9253 72.9458C83.2464 73.1891 82.5251 73.2893 81.8061 73.2402C80.4463 73.1155 79.1842 72.4765 78.2745 71.4521C77.3648 70.4278 76.8751 69.0944 76.9043 67.7211V54.1531C76.9043 52.7503 77.4583 51.405 78.4442 50.4131C79.4301 49.4211 80.7673 48.8639 82.1616 48.8639C83.556 48.8639 84.8931 49.4211 85.8791 50.4131C86.865 51.405 87.4189 52.7503 87.4189 54.1531V67.9596Z" fill="#231F20" stroke="#231F20" stroke-width="3" stroke-linecap="round" stroke-linejoin="round"/>
</svg>
